<svg width="600" height="600" viewBox="0 0 600 600" fill="none" xmlns="http://www.w3.org/2000/svg">
<circle cx="300" cy="300" r="300" fill="#00FFC2"/>
<path d="M289.519 293.337V271.998H295.264C298.328 271.998 300.67 272.917 302.29 274.755C303.931 276.572 304.752 279.209 304.752 282.667C304.752 286.125 303.942 288.773 302.323 290.612C300.725 292.428 298.405 293.337 295.363 293.337H289.519ZM293.459 289.725H295.067C297.015 289.725 298.449 289.156 299.368 288.018C300.287 286.858 300.747 285.075 300.747 282.667C300.747 280.26 300.287 278.487 299.368 277.349C298.449 276.189 297.015 275.609 295.067 275.609H293.459V289.725ZM306.659 293.337L313.684 271.998H317.755L324.78 293.337H320.644L319.134 288.609H312.108L310.598 293.337H306.659ZM313.224 284.998H318.017L315.621 277.152L313.224 284.998ZM332.793 293.337V284.177L325.571 271.998H330.265L334.927 280.304L339.621 271.998H343.955L336.732 284.177V293.337H332.793ZM353.609 293.731C352.077 293.731 350.655 293.523 349.341 293.107C348.028 292.669 346.824 291.991 345.73 291.071L347.733 287.887C348.586 288.631 349.506 289.178 350.49 289.529C351.497 289.879 352.57 290.054 353.708 290.054C356.29 290.054 357.581 289.135 357.581 287.296C357.581 286.596 357.395 286.071 357.023 285.72C356.673 285.348 356.06 285.053 355.185 284.834L351.738 283.98C349.965 283.543 348.652 282.853 347.798 281.912C346.967 280.949 346.551 279.669 346.551 278.071C346.551 276.058 347.218 274.482 348.553 273.344C349.889 272.184 351.76 271.604 354.167 271.604C356.772 271.604 359.081 272.315 361.094 273.738L359.223 276.988C357.822 275.85 356.137 275.281 354.167 275.281C351.738 275.281 350.523 276.145 350.523 277.874C350.523 278.487 350.698 278.979 351.048 279.352C351.421 279.702 352.044 279.986 352.92 280.205L356.367 281.059C358.14 281.496 359.442 282.197 360.273 283.16C361.127 284.101 361.554 285.414 361.554 287.099C361.554 289.156 360.853 290.776 359.453 291.958C358.074 293.14 356.126 293.731 353.609 293.731ZM391.893 293.731C389.179 293.731 387.122 292.8 385.721 290.94C384.32 289.058 383.62 286.3 383.62 282.667C383.62 279.012 384.32 276.255 385.721 274.394C387.122 272.534 389.179 271.604 391.893 271.604C394.629 271.604 396.686 272.534 398.065 274.394C399.465 276.255 400.166 279.012 400.166 282.667C400.166 286.3 399.465 289.058 398.065 290.94C396.686 292.8 394.629 293.731 391.893 293.731ZM391.893 290.054C394.738 290.054 396.161 287.592 396.161 282.667C396.161 277.743 394.738 275.281 391.893 275.281C389.048 275.281 387.625 277.743 387.625 282.667C387.625 287.592 389.048 290.054 391.893 290.054ZM404.633 293.337V271.998H418.651V275.609H408.573V280.927H417.075V284.538H408.573V293.337H404.633ZM450.271 293.731C447.382 293.731 445.171 292.79 443.639 290.907C442.129 289.003 441.374 286.257 441.374 282.667C441.374 279.078 442.129 276.342 443.639 274.46C445.171 272.556 447.382 271.604 450.271 271.604C452.678 271.604 454.757 272.381 456.508 273.935L454.506 276.988C453.236 275.85 451.835 275.281 450.303 275.281C447.02 275.281 445.379 277.743 445.379 282.667C445.379 287.592 447.02 290.054 450.303 290.054C451.179 290.054 451.989 289.879 452.733 289.529C453.477 289.178 454.221 288.631 454.965 287.887L457.197 290.743C456.191 291.772 455.14 292.527 454.046 293.008C452.952 293.49 451.693 293.731 450.271 293.731ZM468.066 293.731C465.353 293.731 463.295 292.8 461.895 290.94C460.494 289.058 459.794 286.3 459.794 282.667C459.794 279.012 460.494 276.255 461.895 274.394C463.295 272.534 465.353 271.604 468.066 271.604C470.802 271.604 472.86 272.534 474.238 274.394C475.639 276.255 476.339 279.012 476.339 282.667C476.339 286.3 475.639 289.058 474.238 290.94C472.86 292.8 470.802 293.731 468.066 293.731ZM468.066 290.054C470.912 290.054 472.334 287.592 472.334 282.667C472.334 277.743 470.912 275.281 468.066 275.281C465.221 275.281 463.799 277.743 463.799 282.667C463.799 287.592 465.221 290.054 468.066 290.054ZM479.953 293.337V271.998H485.698C488.762 271.998 491.104 272.917 492.724 274.755C494.365 276.572 495.186 279.209 495.186 282.667C495.186 286.125 494.376 288.773 492.756 290.612C491.159 292.428 488.839 293.337 485.797 293.337H479.953ZM483.893 289.725H485.501C487.449 289.725 488.883 289.156 489.802 288.018C490.721 286.858 491.181 285.075 491.181 282.667C491.181 280.26 490.721 278.487 489.802 277.349C488.883 276.189 487.449 275.609 485.501 275.609H483.893V289.725ZM499.653 293.337V271.998H513.671V275.609H503.593V280.665H512.095V284.276H503.593V289.725H513.671V293.337H499.653Z" fill="black"/>
<path d="M300.612 329.514C296.727 329.514 293.754 328.248 291.693 325.717C289.662 323.156 288.646 319.462 288.646 314.634C288.646 309.807 289.662 306.127 291.693 303.596C293.754 301.035 296.727 299.754 300.612 299.754C303.85 299.754 306.647 300.799 309.002 302.889L306.308 306.995C304.601 305.465 302.717 304.699 300.656 304.699C296.241 304.699 294.033 308.011 294.033 314.634C294.033 321.257 296.241 324.569 300.656 324.569C301.834 324.569 302.923 324.333 303.924 323.862C304.925 323.391 305.926 322.656 306.926 321.655L309.929 325.496C308.575 326.88 307.162 327.895 305.69 328.543C304.218 329.19 302.526 329.514 300.612 329.514ZM314.613 328.984V300.284H319.911V311.941H329.184V300.284H334.482V328.984H329.184V316.798H319.911V328.984H314.613ZM337.974 328.984L347.423 300.284H352.898L362.347 328.984H356.784L354.753 322.626H345.304L343.272 328.984H337.974ZM346.805 317.769H353.251L350.028 307.216L346.805 317.769ZM367.296 328.984V300.284H372.594V324.127H386.15V328.984H367.296ZM392.909 328.984V300.284H398.207V324.127H411.763V328.984H392.909ZM418.257 328.984V300.284H437.111V305.141H423.556V311.941H434.992V316.798H423.556V324.127H437.111V328.984H418.257ZM442.678 328.984V300.284H448.595L457.779 319.138V300.284H462.547V328.984H457.558L447.447 308.188V328.984H442.678ZM478.27 329.514C476.033 329.514 474.105 328.926 472.486 327.748C470.867 326.541 469.616 324.819 468.733 322.582C467.879 320.345 467.452 317.696 467.452 314.634C467.452 309.807 468.468 306.127 470.499 303.596C472.559 301.035 475.532 299.754 479.418 299.754C482.656 299.754 485.452 300.799 487.807 302.889L485.114 306.995C483.407 305.465 481.523 304.699 479.462 304.699C475.047 304.699 472.839 308.011 472.839 314.634C472.839 321.257 475.002 324.569 479.33 324.569C480.801 324.569 482.111 324.142 483.259 323.288V317.107H478.535V312.25H488.558V328.984H485.026L484.54 327.042C483.627 327.895 482.656 328.528 481.626 328.94C480.595 329.323 479.477 329.514 478.27 329.514ZM495.096 328.984V300.284H513.95V305.141H500.395V311.941H511.831V316.798H500.395V324.127H513.95V328.984H495.096Z" fill="black"/>
<path d="M91.174 330L93.8697 314.782H84.9131L86.0435 308H95.0001L97.174 295.652H88.2174L89.3479 288.869H98.3914L100.739 275.217H108.044L105.696 288.869H115.348L117.696 275.217H125L122.653 288.869H131.522L130.392 295.652H121.435L119.261 308H128.218L127.087 314.782H118.131L115.435 330H108.131L110.826 314.782H101.174L98.4784 330H91.174ZM102.305 308H111.957L114.131 295.652H104.478L102.305 308ZM138.312 330V320.609H153.616V290.956L143.442 298.869L138.572 292.174L156.92 274.695H164.051V320.609H179.355V330H138.312ZM209.102 331.043C202.203 331.043 196.899 328.638 193.188 323.826C189.536 318.956 187.71 311.884 187.71 302.608C187.71 293.333 189.536 286.289 193.188 281.478C196.899 276.608 202.203 274.173 209.102 274.173C216 274.173 221.276 276.608 224.928 281.478C228.638 286.289 230.493 293.333 230.493 302.608C230.493 311.884 228.638 318.956 224.928 323.826C221.276 328.638 216 331.043 209.102 331.043ZM198.493 307.913L217.276 288.434C215.479 285.304 212.754 283.739 209.102 283.739C201.855 283.739 198.232 290.029 198.232 302.608C198.232 304.464 198.319 306.232 198.493 307.913ZM209.102 321.478C216.348 321.478 219.971 315.188 219.971 302.608C219.971 300.695 219.884 298.927 219.71 297.304L200.928 316.782C202.783 319.913 205.507 321.478 209.102 321.478ZM259.544 331.043C252.645 331.043 247.341 328.638 243.63 323.826C239.978 318.956 238.152 311.884 238.152 302.608C238.152 293.333 239.978 286.289 243.63 281.478C247.341 276.608 252.645 274.173 259.544 274.173C266.442 274.173 271.718 276.608 275.37 281.478C279.08 286.289 280.935 293.333 280.935 302.608C280.935 311.884 279.08 318.956 275.37 323.826C271.718 328.638 266.442 331.043 259.544 331.043ZM248.935 307.913L267.718 288.434C265.921 285.304 263.196 283.739 259.544 283.739C252.297 283.739 248.674 290.029 248.674 302.608C248.674 304.464 248.761 306.232 248.935 307.913ZM259.544 321.478C266.79 321.478 270.413 315.188 270.413 302.608C270.413 300.695 270.326 298.927 270.152 297.304L251.37 316.782C253.225 319.913 255.949 321.478 259.544 321.478Z" fill="black"/>
</svg>
